#!OML:ASF F:\VICON\USERDATA\INSTALL\Justin_Nancy\Justin_Nancy.ASF
:FULLY-SPECIFIED
:DEGREES
134
root -10.1914 17.5391 -13.3081 0.683224 -7.58289 -1.23646
lowerback 5.39956 0.881874 0.366958
upperback -0.00950875 1.25104 1.72204
thorax -3.0683 0.629267 1.46814
lowerneck -15.2338 -3.09857 -10.0448
upperneck 23.9401 -3.32919 6.14735
head 10.4606 -1.73295 3.44363
rclavicle 2.41026e-015 -3.97569e-016
rhumerus -30.1025 -13.5974 -78.7847
rradius 33.9171
rwrist 5.95573
rhand -12.7704 9.99486
rfingers 7.12502
rthumb 13.3145 -19.5598
lclavicle 2.41026e-015 -3.97569e-016
lhumerus -36.1127 17.9 80.177
lradius 23.5996
lwrist -13.7487
lhand -11.896 30.3582
lfingers 7.12502
lthumb 14.1572 59.8558
rfemur -0.98009 2.69629 24.2776
rtibia 46.3061
rfoot 4.39201 1.17167
rtoes -1.64011
lfemur -21.7435 -1.00061 -20.4918
ltibia 23.1115
lfoot -2.3555 -2.57153
ltoes 3.17462
135
root -10.1812 17.5527 -13.1627 0.537066 -7.8132 -0.898698
lowerback 5.44149 1.0252 0.13577
upperback 0.0811283 1.41937 1.48804
thorax -3.0018 0.71447 1.34318
lowerneck -15.402 -3.16302 -9.58369
upperneck 23.827 -3.46201 5.9171
head 10.4504 -1.77439 3.26041
rclavicle 3.85145e-015 -2.38542e-015
rhumerus -30.3354 -14.0403 -78.8635
rradius 33.7445
rwrist 5.83833
rhand -12.9933 10.8449
rfingers 7.12502
rthumb 13.0996 -18.7237
lclavicle 3.85145e-015 -2.38542e-015
lhumerus -35.7783 17.3256 80.1876
lradius 23.3755
lwrist -13.0854
lhand -12.8311 28.7678
lfingers 7.12502
lthumb 13.256 58.3263
rfemur -2.27762 2.63382 23.5941
rtibia 48.6187
rfoot 6.80063 2.05507
rtoes 0.569554
lfemur -21.0415 -1.01207 -20.9787
ltibia 23.0296
lfoot -2.39972 -2.46171
ltoes 4.25897
136
root -10.1732 17.5578 -13.0238 0.394091 -7.95724 -0.550887
lowerback 5.52361 1.06719 -0.135091
upperback 0.18782 1.45368 1.3635
thorax -2.94206 0.734024 1.36364
lowerneck -15.4661 -3.223 -9.72387
upperneck 23.568 -3.52294 6.03033
head 10.3792 -1.7974 3.31141
rclavicle -9.44227e-016 -6.75868e-015
rhumerus -30.3586 -14.3822 -78.8677
rradius 33.4941
rwrist 5.99095
rhand -12.9504 12.9702
rfingers 7.12502
rthumb 13.141 -16.5957
lclavicle -9.44227e-016 -6.75868e-015
lhumerus -35.3917 16.9164 80.3058
lradius 23.3379
lwrist -13.0286
lhand -12.3797 28.0317
lfingers 7.12502
lthumb 13.6911 57.5614
rfemur -3.61571 2.63409 22.9854
rtibia 50.8589
rfoot 9.21564 2.42829
rtoes 1.50449
lfemur -20.329 -1.04058 -21.4797
ltibia 22.7929
lfoot -2.36112 -2.31982
ltoes 5.14129
137
root -10.1642 17.5725 -12.8821 0.258402 -7.84386 -0.0927334
lowerback 5.63486 0.95227 -0.599065
upperback 0.213988 1.26913 1.29748
thorax -2.98133 0.648168 1.56957
lowerneck -15.4547 -3.22787 -9.98365
upperneck 23.4219 -3.47 6.08336
head 10.3261 -1.78854 3.37894
rclavicle -1.31695e-014 -6.36111e-015
rhumerus -30.6051 -14.2336 -78.9043
rradius 33.4742
rwrist 6.1213
rhand -13.1417 14.0615
rfingers 7.12502
rthumb 12.9566 -15.5162
lclavicle -1.31695e-014 -6.36111e-015
lhumerus -35.1457 16.9835 80.3109
lradius 23.2517
lwrist -13.4192
lhand -12.9609 26.9402
lfingers 7.12502
lthumb 13.1308 56.5068
rfemur -4.97457 2.43501 22.2651
rtibia 53.0665
rfoot 11.7683 2.70198
rtoes 3.3108
lfemur -19.5281 -0.854234 -22.1862
ltibia 22.4009
lfoot -2.43459 -2.64061
ltoes 5.44364
138
root -10.1563 17.6032 -12.7344 0.0514786 -7.75607 0.404519
lowerback 5.67294 0.88784 -1.04247
upperback 0.342377 1.14884 1.1322
thorax -2.87165 0.591754 1.6586
lowerneck -15.5483 -3.2293 -9.88256
upperneck 23.251 -3.45552 5.97627
head 10.2771 -1.7814 3.32128
rclavicle -2.26118e-015 1.82882e-014
rhumerus -30.7866 -14.081 -79.1296
rradius 33.5818
rwrist 5.94567
rhand -13.4378 14.125
rfingers 7.12502
rthumb 12.6711 -15.4706
lclavicle -2.26118e-015 1.82882e-014
lhumerus -34.7437 16.5677 80.4407
lradius 22.9456
lwrist -12.3672
lhand -17.4301 20.2078
lfingers 7.12502
lthumb 8.82029 50.0035
rfemur -6.27175 2.24851 21.488
rtibia 55.2296
rfoot 13.8016 2.89344
rtoes 13.2424
lfemur -18.576 -0.655993 -22.9447
ltibia 22.0082
lfoot -2.61758 -2.85967
ltoes 5.42338
139
root -10.1461 17.6271 -12.5929 -0.110332 -7.76565 0.867162
lowerback 5.73512 0.8376 -1.46377
upperback 0.37839 1.05098 1.02393
thorax -2.8713 0.54749 1.79124
lowerneck -15.7021 -3.17814 -9.85132
upperneck 23.3229 -3.34633 5.85419
head 10.3204 -1.74135 3.2876
rclavicle 2.63638e-014 1.15295e-014
rhumerus -31.0573 -13.7379 -79.2185
rradius 33.5896
rwrist 5.77861
rhand -13.4133 14.7064
rfingers 7.12502
rthumb 12.6947 -14.8877
lclavicle 2.63638e-014 1.15295e-014
lhumerus -34.6606 16.1358 80.5715
lradius 23.6524
lwrist -13.2335
lhand -12.34 28.1669
lfingers 7.12502
lthumb 13.7294 57.694
rfemur -7.55526 2.1655 20.7593
rtibia 57.3459
rfoot 14.6492 2.91743
rtoes 14.1919
lfemur -17.6842 -0.607146 -23.6174
ltibia 21.5685
lfoot -2.54555 -2.6795
ltoes 5.49463
140
root -10.1378 17.6284 -12.4645 -0.0953094 -7.63835 1.03293
lowerback 5.8639 0.739056 -1.57166
upperback 0.307879 0.910042 0.986926
thorax -3.01133 0.480324 1.82362
lowerneck -15.9257 -3.14748 -9.80435
upperneck 23.4952 -3.25307 5.68242
head 10.4144 -1.71376 3.23267
rclavicle -1.81391e-014 1.98785e-015
rhumerus -31.2665 -13.4963 -79.2838
rradius 33.4579
rwrist 5.73061
rhand -13.0924 14.6095
rfingers 7.12502
rthumb 13.0042 -14.9652
lclavicle -1.81391e-014 1.98785e-015
lhumerus -34.5485 15.828 80.6309
lradius 23.7597
lwrist -13.2402
lhand -11.5695 29.7682
lfingers 7.12502
lthumb 14.4718 59.2435
rfemur -8.83015 1.95037 20.3935
rtibia 59.4329
rfoot 14.3374 2.17628
rtoes 14.4536
lfemur -17.1169 -0.62844 -23.9529
ltibia 21.2391
lfoot -2.71311 -2.74212
ltoes 4.40042
141
root -10.1313 17.638 -12.3341 -0.140231 -7.44535 1.20082
lowerback 5.98414 0.600887 -1.76785
upperback 0.328476 0.713011 1.04704
thorax -3.05206 0.38554 2.012
lowerneck -16.1076 -3.1056 -10.0265
upperneck 23.5064 -3.09357 5.60828
head 10.4434 -1.66681 3.26493
rclavicle -1.77167e-014 1.59028e-015
rhumerus -31.239 -13.2321 -79.2662
rradius 33.2316
rwrist 5.81829
rhand -12.7769 14.0694
rfingers 7.12502
rthumb 13.3082 -15.4857
lclavicle -1.77167e-014 1.59028e-015
lhumerus -34.2343 15.7443 80.7977
lradius 23.7079
lwrist -13.6341
lhand -11.5474 29.2736
lfingers 7.12502
lthumb 14.4931 58.7474
rfemur -10.3831 1.57179 20.0624
rtibia 61.2758
rfoot 13.979 1.15589
rtoes 14.2825
lfemur -16.5617 -0.633742 -24.2805
ltibia 21.1628
lfoot -3.30132 -2.85126
ltoes 4.94174
142
root -10.1255 17.6424 -12.2001 -0.272427 -7.34478 1.37317
lowerback 6.16733 0.504892 -2.03675
upperback 0.255547 0.565876 1.11732
thorax -3.2265 0.319354 2.24774
lowerneck -15.6652 -3.00954 -10.1441
upperneck 23.2571 -2.93064 5.46781
head 10.2544 -1.6206 3.25301
rclavicle 1.10822e-014 7.95139e-015
rhumerus -31.5016 -13.1261 -79.1246
rradius 33.053
rwrist 6.12256
rhand -12.5045 13.6735
rfingers 7.12502
rthumb 13.5708 -15.8642
lclavicle 1.10822e-014 7.95139e-015
lhumerus -34.3239 15.2523 81.0096
lradius 24.1362
lwrist -13.6207
lhand -11.0512 29.6817
lfingers 7.12502
lthumb 14.9711 59.1206
rfemur -11.4872 1.26057 19.7758
rtibia 62.9525
rfoot 12.6368 0.0511411
rtoes 12.0644
lfemur -16.0455 -0.665082 -24.5969
ltibia 21.3166
lfoot -3.92919 -2.78507
ltoes 6.12576
143
root -10.1195 17.6393 -12.0675 -0.396172 -7.2295 1.42079
lowerback 6.25391 0.493727 -2.00252
upperback 0.343302 0.549273 1.03586
thorax -3.18222 0.308553 2.14543
lowerneck -15.5888 -3.00318 -9.92162
upperneck 23.1655 -2.958 5.35411
head 10.2032 -1.62595 3.16942
rclavicle -7.8023e-015 1.98785e-015
rhumerus -31.4418 -13.4125 -79.1715
rradius 32.6301
rwrist 6.61572
rhand -12.6408 13.756
rfingers 7.12502
rthumb 13.4395 -15.7905
lclavicle -7.8023e-015 1.98785e-015
lhumerus -34.0454 14.7058 81.0427
lradius 24.3962
lwrist -13.6561
lhand -10.8847 29.8796
lfingers 7.12502
lthumb 15.1316 59.3064
rfemur -12.5044 0.857229 19.6104
rtibia 64.4155
rfoot 10.6655 -1.25273
rtoes 9.50129
lfemur -15.5011 -0.732671 -24.7776
ltibia 21.4267
lfoot -4.32252 -2.65908
ltoes 6.87003
144
root -10.1156 17.6455 -11.9366 -0.47763 -7.12103 1.37898
lowerback 6.27101 0.405403 -2.00733
upperback 0.501084 0.433448 1.10812
thorax -3.02327 0.247893 2.23337
lowerneck -15.8967 -2.95044 -9.9505
upperneck 23.2793 -2.82806 5.2883
head 10.2918 -1.57427 3.16939
rclavicle -1.10822e-014 -8.34896e-015
rhumerus -31.2394 -13.2837 -79.2398
rradius 32.3767
rwrist 6.9457
rhand -12.8186 13.7268
rfingers 7.12502
rthumb 13.2681 -15.8309
lclavicle -1.10822e-014 -8.34896e-015
lhumerus -33.6406 14.7261 81.0763
lradius 24.4415
lwrist -13.6857
lhand -11.664 29.0716
lfingers 7.12502
lthumb 14.3808 58.5534
rfemur -13.6567 0.522213 19.5655
rtibia 65.7021
rfoot 9.16647 -2.56705
rtoes 9.43294
lfemur -14.9571 -0.790979 -24.8421
ltibia 21.5595
lfoot -4.81295 -2.60585
ltoes 7.11358
145
root -10.1089 17.6576 -11.8112 -0.409017 -6.88835 1.49492
lowerback 6.36285 0.231761 -2.20216
upperback 0.368329 0.189323 1.19385
thorax -3.19981 0.133355 2.45375
lowerneck -15.8456 -2.84778 -9.99041
upperneck 23.3266 -2.63752 5.12649
head 10.2819 -1.51075 3.14476
rclavicle -1.63749e-014 8.34896e-015
rhumerus -31.6021 -12.9325 -79.205
rradius 32.5228
rwrist 7.22146
rhand -12.7865 13.6511
rfingers 7.12502
rthumb 13.299 -15.9045
lclavicle -1.63749e-014 8.34896e-015
lhumerus -33.5915 14.7474 81.0714
lradius 24.5133
lwrist -13.6904
lhand -11.4714 30.3778
lfingers 7.12502
lthumb 14.5663 59.8463
rfemur -15.0109 0.0752535 19.3327
rtibia 66.8416
rfoot 8.00243 -3.82387
rtoes 8.74903
lfemur -14.5785 -1.02788 -25.0689
ltibia 21.6165
lfoot -5.29079 -2.49945
ltoes 7.15705
146
root -10.1018 17.6553 -11.6871 -0.475058 -6.72995 1.60838
lowerback 6.54738 0.183606 -2.27185
upperback 0.367871 0.116182 1.18398
thorax -3.29956 0.0992938 2.48987
lowerneck -16.0119 -2.86517 -9.83853
upperneck 23.3951 -2.62034 4.87077
head 10.3324 -1.51844 3.0299
rclavicle 7.15625e-015 -3.97569e-016
rhumerus -31.7954 -13.24 -79.0908
rradius 32.496
rwrist 7.48543
rhand -12.8676 13.8276
rfingers 7.12502
rthumb 13.2208 -15.7331
lclavicle 7.15625e-015 -3.97569e-016
lhumerus -33.3168 14.4822 81.1311
lradius 24.7048
lwrist -13.6821
lhand -8.83272 36.759
lfingers 7.12502
lthumb 17.1075 66.0258
rfemur -16.1644 -0.286888 19.082
rtibia 67.8221
rfoot 7.05444 -5.12882
rtoes 8.79347
lfemur -14.0686 -1.23761 -25.3023
ltibia 21.6064
lfoot -5.81583 -2.13866
ltoes 6.6083
147
root -10.0969 17.6566 -11.5562 -0.615054 -6.71718 1.73533
lowerback 6.68201 0.146637 -2.33472
upperback 0.396343 0.0583552 1.14908
thorax -3.34212 0.0714854 2.49487
lowerneck -15.9208 -2.81289 -9.80847
upperneck 23.3815 -2.54206 4.78428
head 10.3021 -1.49074 3.00442
rclavicle 1.85367e-014 1.59028e-015
rhumerus -31.866 -13.7981 -78.948
rradius 32.1842
rwrist 7.98047
rhand -13.0461 13.7227
rfingers 7.12502
rthumb 13.0487 -15.8491
lclavicle 1.85367e-014 1.59028e-015
lhumerus -33.1659 14.5098 81.0464
lradius 25.0546
lwrist -13.6035
lhand -12.7848 28.6417
lfingers 7.12502
lthumb 13.3006 58.1973
rfemur -17.1914 -0.554248 18.7955
rtibia 68.5953
rfoot 6.28688 -6.25623
rtoes 9.74048
lfemur -13.5108 -1.2482 -25.5645
ltibia 21.6533
lfoot -6.45554 -1.65846
ltoes 4.77346
148
root -10.0931 17.6618 -11.426 -0.673014 -6.68101 1.86114
lowerback 6.64084 0.0934736 -2.51505
upperback 0.45279 -0.0222312 1.22828
thorax -3.25574 0.032609 2.68594
lowerneck -15.8628 -2.73692 -9.97972
upperneck 23.2627 -2.38784 4.76896
head 10.2382 -1.43506 3.0468
rclavicle -3.67752e-015 1.19271e-015
rhumerus -31.986 -13.9926 -78.7424
rradius 32.1541
rwrist 8.15505
rhand -12.9969 13.3751
rfingers 7.12502
rthumb 13.0962 -16.1937
lclavicle -3.67752e-015 1.19271e-015
lhumerus -32.9408 14.5555 81.1351
lradius 25.2976
lwrist -13.4559
lhand -17.0376 22.7578
lfingers 7.12502
lthumb 9.19908 52.5372
rfemur -18.2648 -0.766194 18.5659
rtibia 69.123
rfoot 5.63482 -7.32852
rtoes 10.8797
lfemur -13.0803 -1.21969 -25.797
ltibia 21.8789
lfoot -7.00686 -1.64747
ltoes 4.68703
